<svg xmlns="http://www.w3.org/2000/svg" width="400" height="400" viewBox="0 0 400 400">
  <rect width="400" height="400" rx="16" fill="#0D1117"/>
  <path d="M 340.0,200.0 L 340.0,203.1 L 339.8,206.3 L 339.6,209.4 L 339.3,212.5 L 338.9,215.6 L 338.4,218.7 L 337.8,221.8 L 337.1,224.8 L 336.3,227.9 L 335.5,230.8 L 334.6,233.8 L 333.6,236.7 L 332.5,239.6 L 331.3,242.4 L 330.1,245.2 L 328.7,247.9 L 327.3,250.6 L 325.9,253.3 L 324.4,255.8 L 322.8,258.4 L 321.1,260.8 L 319.4,263.2 L 317.6,265.6 L 315.8,267.8 L 313.9,270.0 L 312.0,272.2 L 310.0,274.2 L 308.0,276.2 L 306.0,278.1 L 303.9,280.0 L 301.8,281.8 L 299.7,283.5 L 297.5,285.1 L 295.3,286.7 L 293.1,288.1 L 290.9,289.6 L 288.7,290.9 L 286.4,292.2 L 284.2,293.3 L 281.9,294.5 L 279.7,295.5 L 277.4,296.5 L 275.2,297.4 L 272.9,298.2 L 270.7,299.0 L 268.5,299.7 L 266.3,300.3 L 264.1,300.9 L 262.0,301.5 L 259.8,301.9 L 257.7,302.3 L 255.6,302.7 L 253.5,303.0 L 251.5,303.3 L 249.5,303.5 L 247.5,303.6 L 245.6,303.8 L 243.7,303.9 L 241.8,303.9 L 240.0,303.9 L 238.2,303.9 L 236.4,303.9 L 234.7,303.8 L 233.0,303.7 L 231.4,303.6 L 229.8,303.4 L 228.2,303.3 L 226.7,303.1 L 225.2,302.9 L 223.7,302.8 L 222.3,302.6 L 220.9,302.4 L 219.5,302.2 L 218.2,302.0 L 216.9,301.8 L 215.6,301.6 L 214.4,301.4 L 213.2,301.2 L 212.0,301.0 L 210.8,300.9 L 209.7,300.7 L 208.6,300.6 L 207.5,300.4 L 206.4,300.3 L 205.3,300.2 L 204.2,300.1 L 203.2,300.1 L 202.1,300.0 L 201.0,300.0 L 200.0,300.0 L 199.0,300.0 L 197.9,300.0 L 196.8,300.1 L 195.8,300.1 L 194.7,300.2 L 193.6,300.3 L 192.5,300.4 L 191.4,300.6 L 190.3,300.7 L 189.2,300.9 L 188.0,301.0 L 186.8,301.2 L 185.6,301.4 L 184.4,301.6 L 183.1,301.8 L 181.8,302.0 L 180.5,302.2 L 179.1,302.4 L 177.7,302.6 L 176.3,302.8 L 174.8,302.9 L 173.3,303.1 L 171.8,303.3 L 170.2,303.4 L 168.6,303.6 L 167.0,303.7 L 165.3,303.8 L 163.6,303.9 L 161.8,303.9 L 160.0,303.9 L 158.2,303.9 L 156.3,303.9 L 154.4,303.8 L 152.5,303.6 L 150.5,303.5 L 148.5,303.3 L 146.5,303.0 L 144.4,302.7 L 142.3,302.3 L 140.2,301.9 L 138.0,301.5 L 135.9,300.9 L 133.7,300.3 L 131.5,299.7 L 129.3,299.0 L 127.1,298.2 L 124.8,297.4 L 122.6,296.5 L 120.3,295.5 L 118.1,294.5 L 115.8,293.3 L 113.6,292.2 L 111.3,290.9 L 109.1,289.6 L 106.9,288.1 L 104.7,286.7 L 102.5,285.1 L 100.3,283.5 L 98.2,281.8 L 96.1,280.0 L 94.0,278.1 L 92.0,276.2 L 90.0,274.2 L 88.0,272.2 L 86.1,270.0 L 84.2,267.8 L 82.4,265.6 L 80.6,263.2 L 78.9,260.8 L 77.2,258.4 L 75.6,255.8 L 74.1,253.3 L 72.7,250.6 L 71.3,247.9 L 69.9,245.2 L 68.7,242.4 L 67.5,239.6 L 66.4,236.7 L 65.4,233.8 L 64.5,230.8 L 63.7,227.9 L 62.9,224.8 L 62.2,221.8 L 61.6,218.7 L 61.1,215.6 L 60.7,212.5 L 60.4,209.4 L 60.2,206.3 L 60.0,203.1 L 60.0,200.0 L 60.0,196.9 L 60.2,193.7 L 60.4,190.6 L 60.7,187.5 L 61.1,184.4 L 61.6,181.3 L 62.2,178.2 L 62.9,175.2 L 63.7,172.1 L 64.5,169.2 L 65.4,166.2 L 66.4,163.3 L 67.5,160.4 L 68.7,157.6 L 69.9,154.8 L 71.3,152.1 L 72.7,149.4 L 74.1,146.7 L 75.6,144.2 L 77.2,141.6 L 78.9,139.2 L 80.6,136.8 L 82.4,134.4 L 84.2,132.2 L 86.1,130.0 L 88.0,127.8 L 90.0,125.8 L 92.0,123.8 L 94.0,121.9 L 96.1,120.0 L 98.2,118.2 L 100.3,116.5 L 102.5,114.9 L 104.7,113.3 L 106.9,111.9 L 109.1,110.4 L 111.3,109.1 L 113.6,107.8 L 115.8,106.7 L 118.1,105.5 L 120.3,104.5 L 122.6,103.5 L 124.8,102.6 L 127.1,101.8 L 129.3,101.0 L 131.5,100.3 L 133.7,99.7 L 135.9,99.1 L 138.0,98.5 L 140.2,98.1 L 142.3,97.7 L 144.4,97.3 L 146.5,97.0 L 148.5,96.7 L 150.5,96.5 L 152.5,96.4 L 154.4,96.2 L 156.3,96.1 L 158.2,96.1 L 160.0,96.1 L 161.8,96.1 L 163.6,96.1 L 165.3,96.2 L 167.0,96.3 L 168.6,96.4 L 170.2,96.6 L 171.8,96.7 L 173.3,96.9 L 174.8,97.1 L 176.3,97.2 L 177.7,97.4 L 179.1,97.6 L 180.5,97.8 L 181.8,98.0 L 183.1,98.2 L 184.4,98.4 L 185.6,98.6 L 186.8,98.8 L 188.0,99.0 L 189.2,99.1 L 190.3,99.3 L 191.4,99.4 L 192.5,99.6 L 193.6,99.7 L 194.7,99.8 L 195.8,99.9 L 196.8,99.9 L 197.9,100.0 L 199.0,100.0 L 200.0,100.0 L 201.0,100.0 L 202.1,100.0 L 203.2,99.9 L 204.2,99.9 L 205.3,99.8 L 206.4,99.7 L 207.5,99.6 L 208.6,99.4 L 209.7,99.3 L 210.8,99.1 L 212.0,99.0 L 213.2,98.8 L 214.4,98.6 L 215.6,98.4 L 216.9,98.2 L 218.2,98.0 L 219.5,97.8 L 220.9,97.6 L 222.3,97.4 L 223.7,97.2 L 225.2,97.1 L 226.7,96.9 L 228.2,96.7 L 229.8,96.6 L 231.4,96.4 L 233.0,96.3 L 234.7,96.2 L 236.4,96.1 L 238.2,96.1 L 240.0,96.1 L 241.8,96.1 L 243.7,96.1 L 245.6,96.2 L 247.5,96.4 L 249.5,96.5 L 251.5,96.7 L 253.5,97.0 L 255.6,97.3 L 257.7,97.7 L 259.8,98.1 L 262.0,98.5 L 264.1,99.1 L 266.3,99.7 L 268.5,100.3 L 270.7,101.0 L 272.9,101.8 L 275.2,102.6 L 277.4,103.5 L 279.7,104.5 L 281.9,105.5 L 284.2,106.7 L 286.4,107.8 L 288.7,109.1 L 290.9,110.4 L 293.1,111.9 L 295.3,113.3 L 297.5,114.9 L 299.7,116.5 L 301.8,118.2 L 303.9,120.0 L 306.0,121.9 L 308.0,123.8 L 310.0,125.8 L 312.0,127.8 L 313.9,130.0 L 315.8,132.2 L 317.6,134.4 L 319.4,136.8 L 321.1,139.2 L 322.8,141.6 L 324.4,144.2 L 325.9,146.7 L 327.3,149.4 L 328.7,152.1 L 330.1,154.8 L 331.3,157.6 L 332.5,160.4 L 333.6,163.3 L 334.6,166.2 L 335.5,169.2 L 336.3,172.1 L 337.1,175.2 L 337.8,178.2 L 338.4,181.3 L 338.9,184.4 L 339.3,187.5 L 339.6,190.6 L 339.8,193.7 L 340.0,196.9 Z" fill="none" stroke="#30363D" stroke-width="2.5"/>
  <path d="M 200.0,112.0 A 145,145 0 0 1 276.2,244.0 A 145,145 0 0 1 123.8,244.0 A 145,145 0 0 1 200.0,112.0 Z" fill="#161B22" stroke="#8B949E" stroke-width="2"/>
  <circle cx="200.0" cy="112.0" r="5" fill="#EC915C"/>
  <circle cx="276.2" cy="244.0" r="5" fill="#EC915C"/>
  <circle cx="123.8" cy="244.0" r="5" fill="#EC915C"/>
  <circle cx="200.0" cy="200.0" r="16" fill="#0D1117" stroke="#30363D" stroke-width="2"/>
  <circle cx="200.0" cy="200.0" r="5" fill="#EC915C"/>
</svg>
