<svg xmlns="http://www.w3.org/2000/svg" width="100%" height="120" viewBox="0 0 900 120" preserveAspectRatio="xMidYMid slice">
  <defs>
    <linearGradient id="ffade" x1="0" y1="0" x2="0" y2="1">
      <stop offset="0%" stop-color="#0D1117" stop-opacity="0.85"/>
      <stop offset="100%" stop-color="#0D1117"/>
    </linearGradient>
  </defs>
  <rect width="900" height="120" fill="url(#ffade)"/>
  <path d="M 241.0,50.0 L 241.0,50.9 L 240.9,51.8 L 240.9,52.8 L 240.8,53.7 L 240.7,54.6 L 240.5,55.5 L 240.3,56.4 L 240.1,57.3 L 239.9,58.2 L 239.7,59.1 L 239.4,59.9 L 239.1,60.8 L 238.8,61.6 L 238.4,62.5 L 238.1,63.3 L 237.7,64.1 L 237.2,64.9 L 236.8,65.7 L 236.4,66.4 L 235.9,67.2 L 235.4,67.9 L 234.9,68.6 L 234.4,69.3 L 233.8,69.9 L 233.3,70.6 L 232.7,71.2 L 232.1,71.8 L 231.5,72.4 L 230.9,73.0 L 230.3,73.5 L 229.7,74.0 L 229.1,74.5 L 228.4,75.0 L 227.8,75.4 L 227.1,75.9 L 226.5,76.3 L 225.8,76.7 L 225.1,77.0 L 224.5,77.4 L 223.8,77.7 L 223.1,78.0 L 222.5,78.3 L 221.8,78.5 L 221.2,78.8 L 220.5,79.0 L 219.9,79.2 L 219.2,79.4 L 218.6,79.5 L 217.9,79.7 L 217.3,79.8 L 216.7,79.9 L 216.1,80.0 L 215.5,80.1 L 214.9,80.2 L 214.3,80.2 L 213.7,80.3 L 213.1,80.3 L 212.6,80.3 L 212.0,80.3 L 211.5,80.3 L 211.0,80.3 L 210.5,80.3 L 210.0,80.2 L 209.5,80.2 L 209.0,80.2 L 208.5,80.1 L 208.1,80.1 L 207.6,80.0 L 207.2,80.0 L 206.8,79.9 L 206.4,79.8 L 206.0,79.8 L 205.6,79.7 L 205.2,79.6 L 204.8,79.6 L 204.5,79.5 L 204.1,79.4 L 203.8,79.4 L 203.4,79.3 L 203.1,79.3 L 202.8,79.2 L 202.4,79.2 L 202.1,79.1 L 201.8,79.1 L 201.5,79.1 L 201.2,79.0 L 200.9,79.0 L 200.6,79.0 L 200.3,79.0 L 200.0,79.0 L 199.7,79.0 L 199.4,79.0 L 199.1,79.0 L 198.8,79.0 L 198.5,79.1 L 198.2,79.1 L 197.9,79.1 L 197.6,79.2 L 197.2,79.2 L 196.9,79.3 L 196.6,79.3 L 196.2,79.4 L 195.9,79.4 L 195.5,79.5 L 195.2,79.6 L 194.8,79.6 L 194.4,79.7 L 194.0,79.8 L 193.6,79.8 L 193.2,79.9 L 192.8,80.0 L 192.4,80.0 L 191.9,80.1 L 191.5,80.1 L 191.0,80.2 L 190.5,80.2 L 190.0,80.2 L 189.5,80.3 L 189.0,80.3 L 188.5,80.3 L 188.0,80.3 L 187.4,80.3 L 186.9,80.3 L 186.3,80.3 L 185.7,80.2 L 185.1,80.2 L 184.5,80.1 L 183.9,80.0 L 183.3,79.9 L 182.7,79.8 L 182.1,79.7 L 181.4,79.5 L 180.8,79.4 L 180.1,79.2 L 179.5,79.0 L 178.8,78.8 L 178.2,78.5 L 177.5,78.3 L 176.9,78.0 L 176.2,77.7 L 175.5,77.4 L 174.9,77.0 L 174.2,76.7 L 173.5,76.3 L 172.9,75.9 L 172.2,75.4 L 171.6,75.0 L 170.9,74.5 L 170.3,74.0 L 169.7,73.5 L 169.1,73.0 L 168.5,72.4 L 167.9,71.8 L 167.3,71.2 L 166.7,70.6 L 166.2,69.9 L 165.6,69.3 L 165.1,68.6 L 164.6,67.9 L 164.1,67.2 L 163.6,66.4 L 163.2,65.7 L 162.8,64.9 L 162.3,64.1 L 161.9,63.3 L 161.6,62.5 L 161.2,61.6 L 160.9,60.8 L 160.6,59.9 L 160.3,59.1 L 160.1,58.2 L 159.9,57.3 L 159.7,56.4 L 159.5,55.5 L 159.3,54.6 L 159.2,53.7 L 159.1,52.8 L 159.1,51.8 L 159.0,50.9 L 159.0,50.0 L 159.0,49.1 L 159.1,48.2 L 159.1,47.2 L 159.2,46.3 L 159.3,45.4 L 159.5,44.5 L 159.7,43.6 L 159.9,42.7 L 160.1,41.8 L 160.3,40.9 L 160.6,40.1 L 160.9,39.2 L 161.2,38.4 L 161.6,37.5 L 161.9,36.7 L 162.3,35.9 L 162.8,35.1 L 163.2,34.3 L 163.6,33.6 L 164.1,32.8 L 164.6,32.1 L 165.1,31.4 L 165.6,30.7 L 166.2,30.1 L 166.7,29.4 L 167.3,28.8 L 167.9,28.2 L 168.5,27.6 L 169.1,27.0 L 169.7,26.5 L 170.3,26.0 L 170.9,25.5 L 171.6,25.0 L 172.2,24.6 L 172.9,24.1 L 173.5,23.7 L 174.2,23.3 L 174.9,23.0 L 175.5,22.6 L 176.2,22.3 L 176.9,22.0 L 177.5,21.7 L 178.2,21.5 L 178.8,21.2 L 179.5,21.0 L 180.1,20.8 L 180.8,20.6 L 181.4,20.5 L 182.1,20.3 L 182.7,20.2 L 183.3,20.1 L 183.9,20.0 L 184.5,19.9 L 185.1,19.8 L 185.7,19.8 L 186.3,19.7 L 186.9,19.7 L 187.4,19.7 L 188.0,19.7 L 188.5,19.7 L 189.0,19.7 L 189.5,19.7 L 190.0,19.8 L 190.5,19.8 L 191.0,19.8 L 191.5,19.9 L 191.9,19.9 L 192.4,20.0 L 192.8,20.0 L 193.2,20.1 L 193.6,20.2 L 194.0,20.2 L 194.4,20.3 L 194.8,20.4 L 195.2,20.4 L 195.5,20.5 L 195.9,20.6 L 196.2,20.6 L 196.6,20.7 L 196.9,20.7 L 197.2,20.8 L 197.6,20.8 L 197.9,20.9 L 198.2,20.9 L 198.5,20.9 L 198.8,21.0 L 199.1,21.0 L 199.4,21.0 L 199.7,21.0 L 200.0,21.0 L 200.3,21.0 L 200.6,21.0 L 200.9,21.0 L 201.2,21.0 L 201.5,20.9 L 201.8,20.9 L 202.1,20.9 L 202.4,20.8 L 202.8,20.8 L 203.1,20.7 L 203.4,20.7 L 203.8,20.6 L 204.1,20.6 L 204.5,20.5 L 204.8,20.4 L 205.2,20.4 L 205.6,20.3 L 206.0,20.2 L 206.4,20.2 L 206.8,20.1 L 207.2,20.0 L 207.6,20.0 L 208.1,19.9 L 208.5,19.9 L 209.0,19.8 L 209.5,19.8 L 210.0,19.8 L 210.5,19.7 L 211.0,19.7 L 211.5,19.7 L 212.0,19.7 L 212.6,19.7 L 213.1,19.7 L 213.7,19.7 L 214.3,19.8 L 214.9,19.8 L 215.5,19.9 L 216.1,20.0 L 216.7,20.1 L 217.3,20.2 L 217.9,20.3 L 218.6,20.5 L 219.2,20.6 L 219.9,20.8 L 220.5,21.0 L 221.2,21.2 L 221.8,21.5 L 222.5,21.7 L 223.1,22.0 L 223.8,22.3 L 224.5,22.6 L 225.1,23.0 L 225.8,23.3 L 226.5,23.7 L 227.1,24.1 L 227.8,24.6 L 228.4,25.0 L 229.1,25.5 L 229.7,26.0 L 230.3,26.5 L 230.9,27.0 L 231.5,27.6 L 232.1,28.2 L 232.7,28.8 L 233.3,29.4 L 233.8,30.1 L 234.4,30.7 L 234.9,31.4 L 235.4,32.1 L 235.9,32.8 L 236.4,33.6 L 236.8,34.3 L 237.2,35.1 L 237.7,35.9 L 238.1,36.7 L 238.4,37.5 L 238.8,38.4 L 239.1,39.2 L 239.4,40.1 L 239.7,40.9 L 239.9,41.8 L 240.1,42.7 L 240.3,43.6 L 240.5,44.5 L 240.7,45.4 L 240.8,46.3 L 240.9,47.2 L 240.9,48.2 L 241.0,49.1 Z" fill="none" stroke="#8B949E" stroke-width="1" opacity="0.05"/>
  <path d="M 747.0,60.0 L 747.0,61.1 L 746.9,62.1 L 746.9,63.2 L 746.7,64.2 L 746.6,65.3 L 746.4,66.3 L 746.2,67.4 L 746.0,68.4 L 745.7,69.4 L 745.5,70.4 L 745.1,71.4 L 744.8,72.4 L 744.4,73.4 L 744.0,74.4 L 743.6,75.3 L 743.1,76.2 L 742.7,77.1 L 742.2,78.0 L 741.6,78.9 L 741.1,79.7 L 740.5,80.6 L 739.9,81.4 L 739.3,82.2 L 738.7,82.9 L 738.1,83.7 L 737.4,84.4 L 736.7,85.1 L 736.0,85.7 L 735.4,86.4 L 734.6,87.0 L 733.9,87.6 L 733.2,88.2 L 732.5,88.7 L 731.7,89.2 L 731.0,89.7 L 730.2,90.2 L 729.4,90.6 L 728.7,91.0 L 727.9,91.4 L 727.1,91.8 L 726.4,92.1 L 725.6,92.4 L 724.8,92.7 L 724.1,93.0 L 723.3,93.2 L 722.6,93.5 L 721.8,93.7 L 721.1,93.8 L 720.4,94.0 L 719.6,94.1 L 718.9,94.3 L 718.2,94.4 L 717.5,94.5 L 716.9,94.5 L 716.2,94.6 L 715.5,94.6 L 714.9,94.6 L 714.2,94.7 L 713.6,94.7 L 713.0,94.6 L 712.4,94.6 L 711.8,94.6 L 711.2,94.5 L 710.7,94.5 L 710.1,94.4 L 709.6,94.4 L 709.1,94.3 L 708.6,94.2 L 708.1,94.2 L 707.6,94.1 L 707.2,94.0 L 706.7,93.9 L 706.3,93.8 L 705.8,93.8 L 705.4,93.7 L 705.0,93.6 L 704.6,93.5 L 704.2,93.5 L 703.8,93.4 L 703.4,93.3 L 703.1,93.3 L 702.7,93.2 L 702.4,93.2 L 702.0,93.1 L 701.7,93.1 L 701.3,93.1 L 701.0,93.0 L 700.7,93.0 L 700.3,93.0 L 700.0,93.0 L 699.7,93.0 L 699.3,93.0 L 699.0,93.0 L 698.7,93.1 L 698.3,93.1 L 698.0,93.1 L 697.6,93.2 L 697.3,93.2 L 696.9,93.3 L 696.6,93.3 L 696.2,93.4 L 695.8,93.5 L 695.4,93.5 L 695.0,93.6 L 694.6,93.7 L 694.2,93.8 L 693.7,93.8 L 693.3,93.9 L 692.8,94.0 L 692.4,94.1 L 691.9,94.2 L 691.4,94.2 L 690.9,94.3 L 690.4,94.4 L 689.9,94.4 L 689.3,94.5 L 688.8,94.5 L 688.2,94.6 L 687.6,94.6 L 687.0,94.6 L 686.4,94.7 L 685.8,94.7 L 685.1,94.6 L 684.5,94.6 L 683.8,94.6 L 683.1,94.5 L 682.5,94.5 L 681.8,94.4 L 681.1,94.3 L 680.4,94.1 L 679.6,94.0 L 678.9,93.8 L 678.2,93.7 L 677.4,93.5 L 676.7,93.2 L 675.9,93.0 L 675.2,92.7 L 674.4,92.4 L 673.6,92.1 L 672.9,91.8 L 672.1,91.4 L 671.3,91.0 L 670.6,90.6 L 669.8,90.2 L 669.0,89.7 L 668.3,89.2 L 667.5,88.7 L 666.8,88.2 L 666.1,87.6 L 665.4,87.0 L 664.6,86.4 L 664.0,85.7 L 663.3,85.1 L 662.6,84.4 L 661.9,83.7 L 661.3,82.9 L 660.7,82.2 L 660.1,81.4 L 659.5,80.6 L 658.9,79.7 L 658.4,78.9 L 657.8,78.0 L 657.3,77.1 L 656.9,76.2 L 656.4,75.3 L 656.0,74.4 L 655.6,73.4 L 655.2,72.4 L 654.9,71.4 L 654.5,70.4 L 654.3,69.4 L 654.0,68.4 L 653.8,67.4 L 653.6,66.3 L 653.4,65.3 L 653.3,64.2 L 653.1,63.2 L 653.1,62.1 L 653.0,61.1 L 653.0,60.0 L 653.0,58.9 L 653.1,57.9 L 653.1,56.8 L 653.3,55.8 L 653.4,54.7 L 653.6,53.7 L 653.8,52.6 L 654.0,51.6 L 654.3,50.6 L 654.5,49.6 L 654.9,48.6 L 655.2,47.6 L 655.6,46.6 L 656.0,45.6 L 656.4,44.7 L 656.9,43.8 L 657.3,42.9 L 657.8,42.0 L 658.4,41.1 L 658.9,40.3 L 659.5,39.4 L 660.1,38.6 L 660.7,37.8 L 661.3,37.1 L 661.9,36.3 L 662.6,35.6 L 663.3,34.9 L 664.0,34.3 L 664.6,33.6 L 665.4,33.0 L 666.1,32.4 L 666.8,31.8 L 667.5,31.3 L 668.3,30.8 L 669.0,30.3 L 669.8,29.8 L 670.6,29.4 L 671.3,29.0 L 672.1,28.6 L 672.9,28.2 L 673.6,27.9 L 674.4,27.6 L 675.2,27.3 L 675.9,27.0 L 676.7,26.8 L 677.4,26.5 L 678.2,26.3 L 678.9,26.2 L 679.6,26.0 L 680.4,25.9 L 681.1,25.7 L 681.8,25.6 L 682.5,25.5 L 683.1,25.5 L 683.8,25.4 L 684.5,25.4 L 685.1,25.4 L 685.8,25.3 L 686.4,25.3 L 687.0,25.4 L 687.6,25.4 L 688.2,25.4 L 688.8,25.5 L 689.3,25.5 L 689.9,25.6 L 690.4,25.6 L 690.9,25.7 L 691.4,25.8 L 691.9,25.8 L 692.4,25.9 L 692.8,26.0 L 693.3,26.1 L 693.7,26.2 L 694.2,26.2 L 694.6,26.3 L 695.0,26.4 L 695.4,26.5 L 695.8,26.5 L 696.2,26.6 L 696.6,26.7 L 696.9,26.7 L 697.3,26.8 L 697.6,26.8 L 698.0,26.9 L 698.3,26.9 L 698.7,26.9 L 699.0,27.0 L 699.3,27.0 L 699.7,27.0 L 700.0,27.0 L 700.3,27.0 L 700.7,27.0 L 701.0,27.0 L 701.3,26.9 L 701.7,26.9 L 702.0,26.9 L 702.4,26.8 L 702.7,26.8 L 703.1,26.7 L 703.4,26.7 L 703.8,26.6 L 704.2,26.5 L 704.6,26.5 L 705.0,26.4 L 705.4,26.3 L 705.8,26.2 L 706.3,26.2 L 706.7,26.1 L 707.2,26.0 L 707.6,25.9 L 708.1,25.8 L 708.6,25.8 L 709.1,25.7 L 709.6,25.6 L 710.1,25.6 L 710.7,25.5 L 711.2,25.5 L 711.8,25.4 L 712.4,25.4 L 713.0,25.4 L 713.6,25.3 L 714.2,25.3 L 714.9,25.4 L 715.5,25.4 L 716.2,25.4 L 716.9,25.5 L 717.5,25.5 L 718.2,25.6 L 718.9,25.7 L 719.6,25.9 L 720.4,26.0 L 721.1,26.2 L 721.8,26.3 L 722.6,26.5 L 723.3,26.8 L 724.1,27.0 L 724.8,27.3 L 725.6,27.6 L 726.4,27.9 L 727.1,28.2 L 727.9,28.6 L 728.7,29.0 L 729.4,29.4 L 730.2,29.8 L 731.0,30.3 L 731.7,30.8 L 732.5,31.3 L 733.2,31.8 L 733.9,32.4 L 734.6,33.0 L 735.4,33.6 L 736.0,34.3 L 736.7,34.9 L 737.4,35.6 L 738.1,36.3 L 738.7,37.1 L 739.3,37.8 L 739.9,38.6 L 740.5,39.4 L 741.1,40.3 L 741.6,41.1 L 742.2,42.0 L 742.7,42.9 L 743.1,43.8 L 743.6,44.7 L 744.0,45.6 L 744.4,46.6 L 744.8,47.6 L 745.1,48.6 L 745.5,49.6 L 745.7,50.6 L 746.0,51.6 L 746.2,52.6 L 746.4,53.7 L 746.6,54.7 L 746.7,55.8 L 746.9,56.8 L 746.9,57.9 L 747.0,58.9 Z" fill="none" stroke="#8B949E" stroke-width="1" opacity="0.04"/>
  <path d="M 485.0,40.0 L 485.0,40.8 L 485.0,41.6 L 484.9,42.4 L 484.8,43.1 L 484.7,43.9 L 484.6,44.7 L 484.4,45.4 L 484.3,46.2 L 484.1,47.0 L 483.9,47.7 L 483.6,48.4 L 483.4,49.2 L 483.1,49.9 L 482.8,50.6 L 482.5,51.3 L 482.2,52.0 L 481.8,52.7 L 481.5,53.3 L 481.1,54.0 L 480.7,54.6 L 480.3,55.2 L 479.8,55.8 L 479.4,56.4 L 479.0,57.0 L 478.5,57.5 L 478.0,58.0 L 477.5,58.6 L 477.0,59.1 L 476.5,59.5 L 476.0,60.0 L 475.5,60.4 L 474.9,60.9 L 474.4,61.3 L 473.8,61.7 L 473.3,62.0 L 472.7,62.4 L 472.2,62.7 L 471.6,63.0 L 471.0,63.3 L 470.5,63.6 L 469.9,63.9 L 469.4,64.1 L 468.8,64.3 L 468.2,64.6 L 467.7,64.7 L 467.1,64.9 L 466.6,65.1 L 466.0,65.2 L 465.5,65.4 L 465.0,65.5 L 464.4,65.6 L 463.9,65.7 L 463.4,65.8 L 462.9,65.8 L 462.4,65.9 L 461.9,65.9 L 461.4,65.9 L 460.9,66.0 L 460.5,66.0 L 460.0,66.0 L 459.6,66.0 L 459.1,66.0 L 458.7,65.9 L 458.3,65.9 L 457.8,65.9 L 457.4,65.9 L 457.1,65.8 L 456.7,65.8 L 456.3,65.7 L 455.9,65.7 L 455.6,65.6 L 455.2,65.6 L 454.9,65.5 L 454.6,65.5 L 454.2,65.4 L 453.9,65.4 L 453.6,65.3 L 453.3,65.3 L 453.0,65.3 L 452.7,65.2 L 452.4,65.2 L 452.1,65.1 L 451.9,65.1 L 451.6,65.1 L 451.3,65.1 L 451.1,65.0 L 450.8,65.0 L 450.5,65.0 L 450.3,65.0 L 450.0,65.0 L 449.7,65.0 L 449.5,65.0 L 449.2,65.0 L 448.9,65.0 L 448.7,65.1 L 448.4,65.1 L 448.1,65.1 L 447.9,65.1 L 447.6,65.2 L 447.3,65.2 L 447.0,65.3 L 446.7,65.3 L 446.4,65.3 L 446.1,65.4 L 445.8,65.4 L 445.4,65.5 L 445.1,65.5 L 444.8,65.6 L 444.4,65.6 L 444.1,65.7 L 443.7,65.7 L 443.3,65.8 L 442.9,65.8 L 442.6,65.9 L 442.2,65.9 L 441.7,65.9 L 441.3,65.9 L 440.9,66.0 L 440.4,66.0 L 440.0,66.0 L 439.5,66.0 L 439.1,66.0 L 438.6,65.9 L 438.1,65.9 L 437.6,65.9 L 437.1,65.8 L 436.6,65.8 L 436.1,65.7 L 435.6,65.6 L 435.0,65.5 L 434.5,65.4 L 434.0,65.2 L 433.4,65.1 L 432.9,64.9 L 432.3,64.7 L 431.8,64.6 L 431.2,64.3 L 430.6,64.1 L 430.1,63.9 L 429.5,63.6 L 429.0,63.3 L 428.4,63.0 L 427.8,62.7 L 427.3,62.4 L 426.7,62.0 L 426.2,61.7 L 425.6,61.3 L 425.1,60.9 L 424.5,60.4 L 424.0,60.0 L 423.5,59.5 L 423.0,59.1 L 422.5,58.6 L 422.0,58.0 L 421.5,57.5 L 421.0,57.0 L 420.6,56.4 L 420.2,55.8 L 419.7,55.2 L 419.3,54.6 L 418.9,54.0 L 418.5,53.3 L 418.2,52.7 L 417.8,52.0 L 417.5,51.3 L 417.2,50.6 L 416.9,49.9 L 416.6,49.2 L 416.4,48.4 L 416.1,47.7 L 415.9,47.0 L 415.7,46.2 L 415.6,45.4 L 415.4,44.7 L 415.3,43.9 L 415.2,43.1 L 415.1,42.4 L 415.0,41.6 L 415.0,40.8 L 415.0,40.0 L 415.0,39.2 L 415.0,38.4 L 415.1,37.6 L 415.2,36.9 L 415.3,36.1 L 415.4,35.3 L 415.6,34.6 L 415.7,33.8 L 415.9,33.0 L 416.1,32.3 L 416.4,31.6 L 416.6,30.8 L 416.9,30.1 L 417.2,29.4 L 417.5,28.7 L 417.8,28.0 L 418.2,27.3 L 418.5,26.7 L 418.9,26.0 L 419.3,25.4 L 419.7,24.8 L 420.2,24.2 L 420.6,23.6 L 421.0,23.0 L 421.5,22.5 L 422.0,22.0 L 422.5,21.4 L 423.0,20.9 L 423.5,20.5 L 424.0,20.0 L 424.5,19.6 L 425.1,19.1 L 425.6,18.7 L 426.2,18.3 L 426.7,18.0 L 427.3,17.6 L 427.8,17.3 L 428.4,17.0 L 429.0,16.7 L 429.5,16.4 L 430.1,16.1 L 430.6,15.9 L 431.2,15.7 L 431.8,15.4 L 432.3,15.3 L 432.9,15.1 L 433.4,14.9 L 434.0,14.8 L 434.5,14.6 L 435.0,14.5 L 435.6,14.4 L 436.1,14.3 L 436.6,14.2 L 437.1,14.2 L 437.6,14.1 L 438.1,14.1 L 438.6,14.1 L 439.1,14.0 L 439.5,14.0 L 440.0,14.0 L 440.4,14.0 L 440.9,14.0 L 441.3,14.1 L 441.7,14.1 L 442.2,14.1 L 442.6,14.1 L 442.9,14.2 L 443.3,14.2 L 443.7,14.3 L 444.1,14.3 L 444.4,14.4 L 444.8,14.4 L 445.1,14.5 L 445.4,14.5 L 445.8,14.6 L 446.1,14.6 L 446.4,14.7 L 446.7,14.7 L 447.0,14.7 L 447.3,14.8 L 447.6,14.8 L 447.9,14.9 L 448.1,14.9 L 448.4,14.9 L 448.7,14.9 L 448.9,15.0 L 449.2,15.0 L 449.5,15.0 L 449.7,15.0 L 450.0,15.0 L 450.3,15.0 L 450.5,15.0 L 450.8,15.0 L 451.1,15.0 L 451.3,14.9 L 451.6,14.9 L 451.9,14.9 L 452.1,14.9 L 452.4,14.8 L 452.7,14.8 L 453.0,14.7 L 453.3,14.7 L 453.6,14.7 L 453.9,14.6 L 454.2,14.6 L 454.6,14.5 L 454.9,14.5 L 455.2,14.4 L 455.6,14.4 L 455.9,14.3 L 456.3,14.3 L 456.7,14.2 L 457.1,14.2 L 457.4,14.1 L 457.8,14.1 L 458.3,14.1 L 458.7,14.1 L 459.1,14.0 L 459.6,14.0 L 460.0,14.0 L 460.5,14.0 L 460.9,14.0 L 461.4,14.1 L 461.9,14.1 L 462.4,14.1 L 462.9,14.2 L 463.4,14.2 L 463.9,14.3 L 464.4,14.4 L 465.0,14.5 L 465.5,14.6 L 466.0,14.8 L 466.6,14.9 L 467.1,15.1 L 467.7,15.3 L 468.2,15.4 L 468.8,15.7 L 469.4,15.9 L 469.9,16.1 L 470.5,16.4 L 471.0,16.7 L 471.6,17.0 L 472.2,17.3 L 472.7,17.6 L 473.3,18.0 L 473.8,18.3 L 474.4,18.7 L 474.9,19.1 L 475.5,19.6 L 476.0,20.0 L 476.5,20.5 L 477.0,20.9 L 477.5,21.4 L 478.0,22.0 L 478.5,22.5 L 479.0,23.0 L 479.4,23.6 L 479.8,24.2 L 480.3,24.8 L 480.7,25.4 L 481.1,26.0 L 481.5,26.7 L 481.8,27.3 L 482.2,28.0 L 482.5,28.7 L 482.8,29.4 L 483.1,30.1 L 483.4,30.8 L 483.6,31.6 L 483.9,32.3 L 484.1,33.0 L 484.3,33.8 L 484.4,34.6 L 484.6,35.3 L 484.7,36.1 L 484.8,36.9 L 484.9,37.6 L 485.0,38.4 L 485.0,39.2 Z" fill="none" stroke="#EC915C" stroke-width="1" opacity="0.03"/>
  <line x1="0" y1="0" x2="900" y2="0" stroke="#30363D" stroke-width="1" opacity="0.5"/>
  <circle cx="364" cy="24" r="0.4" fill="#8B949E" opacity="0.03"/>
  <circle cx="684" cy="30" r="0.5" fill="#8B949E" opacity="0.05"/>
  <circle cx="485" cy="113" r="0.5" fill="#8B949E" opacity="0.04"/>
  <circle cx="552" cy="26" r="0.8" fill="#8B949E" opacity="0.03"/>
  <circle cx="349" cy="82" r="0.4" fill="#8B949E" opacity="0.05"/>
  <circle cx="765" cy="41" r="0.8" fill="#8B949E" opacity="0.04"/>
  <circle cx="697" cy="56" r="0.5" fill="#8B949E" opacity="0.03"/>
  <circle cx="7" cy="24" r="0.8" fill="#8B949E" opacity="0.04"/>
  <circle cx="416" cy="108" r="0.6" fill="#8B949E" opacity="0.06"/>
  <circle cx="322" cy="26" r="0.8" fill="#8B949E" opacity="0.03"/>
  <circle cx="713" cy="71" r="0.8" fill="#8B949E" opacity="0.06"/>
  <circle cx="594" cy="4" r="0.3" fill="#8B949E" opacity="0.04"/>
  <circle cx="738" cy="10" r="0.5" fill="#8B949E" opacity="0.02"/>
  <circle cx="279" cy="1" r="0.5" fill="#8B949E" opacity="0.04"/>
  <circle cx="181" cy="94" r="0.3" fill="#8B949E" opacity="0.03"/>
  <circle cx="232" cy="48" r="0.7" fill="#8B949E" opacity="0.03"/>
  <circle cx="625" cy="111" r="0.4" fill="#8B949E" opacity="0.05"/>
  <circle cx="540" cy="90" r="0.6" fill="#8B949E" opacity="0.04"/>
  <circle cx="87" cy="17" r="0.4" fill="#8B949E" opacity="0.03"/>
  <circle cx="131" cy="25" r="0.6" fill="#8B949E" opacity="0.05"/>
  <circle cx="718" cy="102" r="0.4" fill="#8B949E" opacity="0.05"/>
  <circle cx="167" cy="9" r="0.4" fill="#8B949E" opacity="0.04"/>
  <circle cx="43" cy="26" r="0.5" fill="#8B949E" opacity="0.05"/>
  <circle cx="359" cy="50" r="0.5" fill="#8B949E" opacity="0.02"/>
  <circle cx="792" cy="111" r="0.7" fill="#8B949E" opacity="0.04"/>
  <circle cx="400" cy="37" r="0.6" fill="#8B949E" opacity="0.05"/>
  <circle cx="280" cy="105" r="0.7" fill="#8B949E" opacity="0.03"/>
  <circle cx="728" cy="81" r="0.4" fill="#8B949E" opacity="0.03"/>
  <circle cx="676" cy="10" r="0.5" fill="#8B949E" opacity="0.06"/>
  <circle cx="231" cy="60" r="0.8" fill="#8B949E" opacity="0.05"/>
  <circle cx="709" cy="64" r="0.8" fill="#8B949E" opacity="0.03"/>
  <circle cx="793" cy="49" r="0.6" fill="#8B949E" opacity="0.04"/>
  <circle cx="254" cy="81" r="0.6" fill="#8B949E" opacity="0.06"/>
  <circle cx="600" cy="53" r="0.5" fill="#8B949E" opacity="0.06"/>
  <circle cx="311" cy="80" r="0.6" fill="#8B949E" opacity="0.06"/>
  <circle cx="174" cy="80" r="0.4" fill="#8B949E" opacity="0.05"/>
  <circle cx="591" cy="89" r="0.7" fill="#8B949E" opacity="0.03"/>
  <circle cx="774" cy="41" r="0.5" fill="#8B949E" opacity="0.02"/>
  <circle cx="479" cy="0" r="0.5" fill="#8B949E" opacity="0.05"/>
  <circle cx="673" cy="20" r="0.7" fill="#8B949E" opacity="0.04"/>
</svg>
