<svg xmlns="http://www.w3.org/2000/svg" width="100%" height="200" viewBox="0 0 900 200" preserveAspectRatio="xMidYMid slice">
  <defs>
    <linearGradient id="hfade" x1="0" y1="0" x2="0" y2="1">
      <stop offset="0%" stop-color="#0D1117"/>
      <stop offset="100%" stop-color="#0D1117" stop-opacity="0.85"/>
    </linearGradient>
  </defs>
  <rect width="900" height="200" fill="url(#hfade)"/>
  <path d="M 210.0,100.0 L 210.0,101.6 L 209.9,103.1 L 209.8,104.7 L 209.6,106.3 L 209.4,107.8 L 209.2,109.4 L 208.9,110.9 L 208.6,112.4 L 208.2,113.9 L 207.7,115.4 L 207.3,116.9 L 206.8,118.4 L 206.2,119.8 L 205.6,121.2 L 205.0,122.6 L 204.4,124.0 L 203.7,125.3 L 202.9,126.6 L 202.2,127.9 L 201.4,129.2 L 200.6,130.4 L 199.7,131.6 L 198.8,132.8 L 197.9,133.9 L 197.0,135.0 L 196.0,136.1 L 195.0,137.1 L 194.0,138.1 L 193.0,139.1 L 192.0,140.0 L 190.9,140.9 L 189.8,141.7 L 188.8,142.6 L 187.7,143.3 L 186.6,144.1 L 185.5,144.8 L 184.3,145.4 L 183.2,146.1 L 182.1,146.7 L 181.0,147.2 L 179.8,147.8 L 178.7,148.2 L 177.6,148.7 L 176.5,149.1 L 175.4,149.5 L 174.2,149.9 L 173.1,150.2 L 172.1,150.5 L 171.0,150.7 L 169.9,151.0 L 168.8,151.2 L 167.8,151.3 L 166.8,151.5 L 165.8,151.6 L 164.8,151.7 L 163.8,151.8 L 162.8,151.9 L 161.8,151.9 L 160.9,152.0 L 160.0,152.0 L 159.1,152.0 L 158.2,151.9 L 157.4,151.9 L 156.5,151.8 L 155.7,151.8 L 154.9,151.7 L 154.1,151.6 L 153.3,151.6 L 152.6,151.5 L 151.9,151.4 L 151.1,151.3 L 150.5,151.2 L 149.8,151.1 L 149.1,151.0 L 148.5,150.9 L 147.8,150.8 L 147.2,150.7 L 146.6,150.6 L 146.0,150.5 L 145.4,150.4 L 144.8,150.4 L 144.3,150.3 L 143.7,150.2 L 143.2,150.2 L 142.6,150.1 L 142.1,150.1 L 141.6,150.0 L 141.0,150.0 L 140.5,150.0 L 140.0,150.0 L 139.5,150.0 L 139.0,150.0 L 138.4,150.0 L 137.9,150.1 L 137.4,150.1 L 136.8,150.2 L 136.3,150.2 L 135.7,150.3 L 135.2,150.4 L 134.6,150.4 L 134.0,150.5 L 133.4,150.6 L 132.8,150.7 L 132.2,150.8 L 131.5,150.9 L 130.9,151.0 L 130.2,151.1 L 129.5,151.2 L 128.9,151.3 L 128.1,151.4 L 127.4,151.5 L 126.7,151.6 L 125.9,151.6 L 125.1,151.7 L 124.3,151.8 L 123.5,151.8 L 122.6,151.9 L 121.8,151.9 L 120.9,152.0 L 120.0,152.0 L 119.1,152.0 L 118.2,151.9 L 117.2,151.9 L 116.2,151.8 L 115.2,151.7 L 114.2,151.6 L 113.2,151.5 L 112.2,151.3 L 111.2,151.2 L 110.1,151.0 L 109.0,150.7 L 107.9,150.5 L 106.9,150.2 L 105.8,149.9 L 104.6,149.5 L 103.5,149.1 L 102.4,148.7 L 101.3,148.2 L 100.2,147.8 L 99.0,147.2 L 97.9,146.7 L 96.8,146.1 L 95.7,145.4 L 94.5,144.8 L 93.4,144.1 L 92.3,143.3 L 91.2,142.6 L 90.2,141.7 L 89.1,140.9 L 88.0,140.0 L 87.0,139.1 L 86.0,138.1 L 85.0,137.1 L 84.0,136.1 L 83.0,135.0 L 82.1,133.9 L 81.2,132.8 L 80.3,131.6 L 79.4,130.4 L 78.6,129.2 L 77.8,127.9 L 77.1,126.6 L 76.3,125.3 L 75.6,124.0 L 75.0,122.6 L 74.4,121.2 L 73.8,119.8 L 73.2,118.4 L 72.7,116.9 L 72.3,115.4 L 71.8,113.9 L 71.4,112.4 L 71.1,110.9 L 70.8,109.4 L 70.6,107.8 L 70.4,106.3 L 70.2,104.7 L 70.1,103.1 L 70.0,101.6 L 70.0,100.0 L 70.0,98.4 L 70.1,96.9 L 70.2,95.3 L 70.4,93.7 L 70.6,92.2 L 70.8,90.6 L 71.1,89.1 L 71.4,87.6 L 71.8,86.1 L 72.3,84.6 L 72.7,83.1 L 73.2,81.6 L 73.8,80.2 L 74.4,78.8 L 75.0,77.4 L 75.6,76.0 L 76.3,74.7 L 77.1,73.4 L 77.8,72.1 L 78.6,70.8 L 79.4,69.6 L 80.3,68.4 L 81.2,67.2 L 82.1,66.1 L 83.0,65.0 L 84.0,63.9 L 85.0,62.9 L 86.0,61.9 L 87.0,60.9 L 88.0,60.0 L 89.1,59.1 L 90.2,58.3 L 91.2,57.4 L 92.3,56.7 L 93.4,55.9 L 94.5,55.2 L 95.7,54.6 L 96.8,53.9 L 97.9,53.3 L 99.0,52.8 L 100.2,52.2 L 101.3,51.8 L 102.4,51.3 L 103.5,50.9 L 104.6,50.5 L 105.8,50.1 L 106.9,49.8 L 107.9,49.5 L 109.0,49.3 L 110.1,49.0 L 111.2,48.8 L 112.2,48.7 L 113.2,48.5 L 114.2,48.4 L 115.2,48.3 L 116.2,48.2 L 117.2,48.1 L 118.2,48.1 L 119.1,48.0 L 120.0,48.0 L 120.9,48.0 L 121.8,48.1 L 122.6,48.1 L 123.5,48.2 L 124.3,48.2 L 125.1,48.3 L 125.9,48.4 L 126.7,48.4 L 127.4,48.5 L 128.1,48.6 L 128.9,48.7 L 129.5,48.8 L 130.2,48.9 L 130.9,49.0 L 131.5,49.1 L 132.2,49.2 L 132.8,49.3 L 133.4,49.4 L 134.0,49.5 L 134.6,49.6 L 135.2,49.6 L 135.7,49.7 L 136.3,49.8 L 136.8,49.8 L 137.4,49.9 L 137.9,49.9 L 138.4,50.0 L 139.0,50.0 L 139.5,50.0 L 140.0,50.0 L 140.5,50.0 L 141.0,50.0 L 141.6,50.0 L 142.1,49.9 L 142.6,49.9 L 143.2,49.8 L 143.7,49.8 L 144.3,49.7 L 144.8,49.6 L 145.4,49.6 L 146.0,49.5 L 146.6,49.4 L 147.2,49.3 L 147.8,49.2 L 148.5,49.1 L 149.1,49.0 L 149.8,48.9 L 150.5,48.8 L 151.1,48.7 L 151.9,48.6 L 152.6,48.5 L 153.3,48.4 L 154.1,48.4 L 154.9,48.3 L 155.7,48.2 L 156.5,48.2 L 157.4,48.1 L 158.2,48.1 L 159.1,48.0 L 160.0,48.0 L 160.9,48.0 L 161.8,48.1 L 162.8,48.1 L 163.8,48.2 L 164.8,48.3 L 165.8,48.4 L 166.8,48.5 L 167.8,48.7 L 168.8,48.8 L 169.9,49.0 L 171.0,49.3 L 172.1,49.5 L 173.1,49.8 L 174.2,50.1 L 175.4,50.5 L 176.5,50.9 L 177.6,51.3 L 178.7,51.8 L 179.8,52.2 L 181.0,52.8 L 182.1,53.3 L 183.2,53.9 L 184.3,54.6 L 185.5,55.2 L 186.6,55.9 L 187.7,56.7 L 188.8,57.4 L 189.8,58.3 L 190.9,59.1 L 192.0,60.0 L 193.0,60.9 L 194.0,61.9 L 195.0,62.9 L 196.0,63.9 L 197.0,65.0 L 197.9,66.1 L 198.8,67.2 L 199.7,68.4 L 200.6,69.6 L 201.4,70.8 L 202.2,72.1 L 202.9,73.4 L 203.7,74.7 L 204.4,76.0 L 205.0,77.4 L 205.6,78.8 L 206.2,80.2 L 206.8,81.6 L 207.3,83.1 L 207.7,84.6 L 208.2,86.1 L 208.6,87.6 L 208.9,89.1 L 209.2,90.6 L 209.4,92.2 L 209.6,93.7 L 209.8,95.3 L 209.9,96.9 L 210.0,98.4 Z" fill="none" stroke="#8B949E" stroke-width="1" opacity="0.08"/>
  <path d="M 808.0,90.0 L 808.0,91.3 L 807.9,92.6 L 807.8,93.9 L 807.7,95.2 L 807.5,96.4 L 807.3,97.7 L 807.1,99.0 L 806.8,100.2 L 806.5,101.5 L 806.2,102.7 L 805.8,103.9 L 805.4,105.1 L 804.9,106.3 L 804.5,107.4 L 804.0,108.6 L 803.4,109.7 L 802.8,110.8 L 802.3,111.9 L 801.6,113.0 L 801.0,114.0 L 800.3,115.0 L 799.6,116.0 L 798.9,117.0 L 798.1,117.9 L 797.4,118.9 L 796.6,119.7 L 795.8,120.6 L 795.0,121.4 L 794.1,122.2 L 793.3,123.0 L 792.4,123.7 L 791.6,124.5 L 790.7,125.1 L 789.8,125.8 L 788.9,126.4 L 788.0,127.0 L 787.1,127.6 L 786.1,128.1 L 785.2,128.6 L 784.3,129.1 L 783.4,129.5 L 782.5,129.9 L 781.5,130.3 L 780.6,130.7 L 779.7,131.0 L 778.8,131.3 L 777.9,131.6 L 777.0,131.9 L 776.1,132.1 L 775.2,132.3 L 774.3,132.5 L 773.5,132.7 L 772.6,132.8 L 771.8,132.9 L 771.0,133.0 L 770.1,133.1 L 769.3,133.2 L 768.5,133.2 L 767.8,133.3 L 767.0,133.3 L 766.3,133.3 L 765.5,133.3 L 764.8,133.3 L 764.1,133.3 L 763.4,133.2 L 762.7,133.2 L 762.1,133.2 L 761.4,133.1 L 760.8,133.0 L 760.2,133.0 L 759.6,132.9 L 759.0,132.9 L 758.4,132.8 L 757.8,132.7 L 757.3,132.6 L 756.7,132.6 L 756.2,132.5 L 755.7,132.4 L 755.2,132.4 L 754.7,132.3 L 754.2,132.3 L 753.7,132.2 L 753.2,132.2 L 752.8,132.1 L 752.3,132.1 L 751.8,132.1 L 751.4,132.0 L 750.9,132.0 L 750.5,132.0 L 750.0,132.0 L 749.5,132.0 L 749.1,132.0 L 748.6,132.0 L 748.2,132.1 L 747.7,132.1 L 747.2,132.1 L 746.8,132.2 L 746.3,132.2 L 745.8,132.3 L 745.3,132.3 L 744.8,132.4 L 744.3,132.4 L 743.8,132.5 L 743.3,132.6 L 742.7,132.6 L 742.2,132.7 L 741.6,132.8 L 741.0,132.9 L 740.4,132.9 L 739.8,133.0 L 739.2,133.0 L 738.6,133.1 L 737.9,133.2 L 737.3,133.2 L 736.6,133.2 L 735.9,133.3 L 735.2,133.3 L 734.5,133.3 L 733.7,133.3 L 733.0,133.3 L 732.2,133.3 L 731.5,133.2 L 730.7,133.2 L 729.9,133.1 L 729.0,133.0 L 728.2,132.9 L 727.4,132.8 L 726.5,132.7 L 725.7,132.5 L 724.8,132.3 L 723.9,132.1 L 723.0,131.9 L 722.1,131.6 L 721.2,131.3 L 720.3,131.0 L 719.4,130.7 L 718.5,130.3 L 717.5,129.9 L 716.6,129.5 L 715.7,129.1 L 714.8,128.6 L 713.9,128.1 L 712.9,127.6 L 712.0,127.0 L 711.1,126.4 L 710.2,125.8 L 709.3,125.1 L 708.4,124.5 L 707.6,123.7 L 706.7,123.0 L 705.9,122.2 L 705.0,121.4 L 704.2,120.6 L 703.4,119.7 L 702.6,118.9 L 701.9,117.9 L 701.1,117.0 L 700.4,116.0 L 699.7,115.0 L 699.0,114.0 L 698.4,113.0 L 697.7,111.9 L 697.2,110.8 L 696.6,109.7 L 696.0,108.6 L 695.5,107.4 L 695.1,106.3 L 694.6,105.1 L 694.2,103.9 L 693.8,102.7 L 693.5,101.5 L 693.2,100.2 L 692.9,99.0 L 692.7,97.7 L 692.5,96.4 L 692.3,95.2 L 692.2,93.9 L 692.1,92.6 L 692.0,91.3 L 692.0,90.0 L 692.0,88.7 L 692.1,87.4 L 692.2,86.1 L 692.3,84.8 L 692.5,83.6 L 692.7,82.3 L 692.9,81.0 L 693.2,79.8 L 693.5,78.5 L 693.8,77.3 L 694.2,76.1 L 694.6,74.9 L 695.1,73.7 L 695.5,72.6 L 696.0,71.4 L 696.6,70.3 L 697.2,69.2 L 697.7,68.1 L 698.4,67.0 L 699.0,66.0 L 699.7,65.0 L 700.4,64.0 L 701.1,63.0 L 701.9,62.1 L 702.6,61.1 L 703.4,60.3 L 704.2,59.4 L 705.0,58.6 L 705.9,57.8 L 706.7,57.0 L 707.6,56.3 L 708.4,55.5 L 709.3,54.9 L 710.2,54.2 L 711.1,53.6 L 712.0,53.0 L 712.9,52.4 L 713.9,51.9 L 714.8,51.4 L 715.7,50.9 L 716.6,50.5 L 717.5,50.1 L 718.5,49.7 L 719.4,49.3 L 720.3,49.0 L 721.2,48.7 L 722.1,48.4 L 723.0,48.1 L 723.9,47.9 L 724.8,47.7 L 725.7,47.5 L 726.5,47.3 L 727.4,47.2 L 728.2,47.1 L 729.0,47.0 L 729.9,46.9 L 730.7,46.8 L 731.5,46.8 L 732.2,46.7 L 733.0,46.7 L 733.7,46.7 L 734.5,46.7 L 735.2,46.7 L 735.9,46.7 L 736.6,46.8 L 737.3,46.8 L 737.9,46.8 L 738.6,46.9 L 739.2,47.0 L 739.8,47.0 L 740.4,47.1 L 741.0,47.1 L 741.6,47.2 L 742.2,47.3 L 742.7,47.4 L 743.3,47.4 L 743.8,47.5 L 744.3,47.6 L 744.8,47.6 L 745.3,47.7 L 745.8,47.7 L 746.3,47.8 L 746.8,47.8 L 747.2,47.9 L 747.7,47.9 L 748.2,47.9 L 748.6,48.0 L 749.1,48.0 L 749.5,48.0 L 750.0,48.0 L 750.5,48.0 L 750.9,48.0 L 751.4,48.0 L 751.8,47.9 L 752.3,47.9 L 752.8,47.9 L 753.2,47.8 L 753.7,47.8 L 754.2,47.7 L 754.7,47.7 L 755.2,47.6 L 755.7,47.6 L 756.2,47.5 L 756.7,47.4 L 757.3,47.4 L 757.8,47.3 L 758.4,47.2 L 759.0,47.1 L 759.6,47.1 L 760.2,47.0 L 760.8,47.0 L 761.4,46.9 L 762.1,46.8 L 762.7,46.8 L 763.4,46.8 L 764.1,46.7 L 764.8,46.7 L 765.5,46.7 L 766.3,46.7 L 767.0,46.7 L 767.8,46.7 L 768.5,46.8 L 769.3,46.8 L 770.1,46.9 L 771.0,47.0 L 771.8,47.1 L 772.6,47.2 L 773.5,47.3 L 774.3,47.5 L 775.2,47.7 L 776.1,47.9 L 777.0,48.1 L 777.9,48.4 L 778.8,48.7 L 779.7,49.0 L 780.6,49.3 L 781.5,49.7 L 782.5,50.1 L 783.4,50.5 L 784.3,50.9 L 785.2,51.4 L 786.1,51.9 L 787.1,52.4 L 788.0,53.0 L 788.9,53.6 L 789.8,54.2 L 790.7,54.9 L 791.6,55.5 L 792.4,56.3 L 793.3,57.0 L 794.1,57.8 L 795.0,58.6 L 795.8,59.4 L 796.6,60.3 L 797.4,61.1 L 798.1,62.1 L 798.9,63.0 L 799.6,64.0 L 800.3,65.0 L 801.0,66.0 L 801.6,67.0 L 802.3,68.1 L 802.8,69.2 L 803.4,70.3 L 804.0,71.4 L 804.5,72.6 L 804.9,73.7 L 805.4,74.9 L 805.8,76.1 L 806.2,77.3 L 806.5,78.5 L 806.8,79.8 L 807.1,81.0 L 807.3,82.3 L 807.5,83.6 L 807.7,84.8 L 807.8,86.1 L 807.9,87.4 L 808.0,88.7 Z" fill="none" stroke="#8B949E" stroke-width="1" opacity="0.06"/>
  <path d="M 502.0,110.0 L 502.0,111.2 L 501.9,112.3 L 501.9,113.5 L 501.7,114.6 L 501.6,115.7 L 501.4,116.9 L 501.2,118.0 L 501.0,119.1 L 500.7,120.2 L 500.4,121.3 L 500.0,122.4 L 499.7,123.5 L 499.3,124.5 L 498.9,125.6 L 498.4,126.6 L 497.9,127.6 L 497.4,128.6 L 496.9,129.6 L 496.4,130.5 L 495.8,131.5 L 495.2,132.4 L 494.6,133.3 L 493.9,134.1 L 493.3,135.0 L 492.6,135.8 L 491.9,136.6 L 491.2,137.3 L 490.5,138.1 L 489.7,138.8 L 489.0,139.5 L 488.2,140.2 L 487.4,140.8 L 486.6,141.4 L 485.9,142.0 L 485.1,142.6 L 484.2,143.1 L 483.4,143.6 L 482.6,144.1 L 481.8,144.6 L 481.0,145.0 L 480.1,145.4 L 479.3,145.8 L 478.5,146.1 L 477.7,146.5 L 476.9,146.8 L 476.1,147.1 L 475.2,147.3 L 474.4,147.6 L 473.7,147.8 L 472.9,148.0 L 472.1,148.1 L 471.3,148.3 L 470.5,148.4 L 469.8,148.6 L 469.0,148.7 L 468.3,148.8 L 467.6,148.8 L 466.9,148.9 L 466.2,148.9 L 465.5,149.0 L 464.8,149.0 L 464.2,149.0 L 463.5,149.0 L 462.9,149.0 L 462.3,149.0 L 461.6,148.9 L 461.0,148.9 L 460.5,148.9 L 459.9,148.8 L 459.3,148.8 L 458.8,148.7 L 458.2,148.7 L 457.7,148.6 L 457.2,148.6 L 456.7,148.5 L 456.2,148.5 L 455.7,148.4 L 455.2,148.4 L 454.8,148.3 L 454.3,148.3 L 453.9,148.2 L 453.4,148.2 L 453.0,148.1 L 452.5,148.1 L 452.1,148.1 L 451.7,148.0 L 451.3,148.0 L 450.8,148.0 L 450.4,148.0 L 450.0,148.0 L 449.6,148.0 L 449.2,148.0 L 448.7,148.0 L 448.3,148.0 L 447.9,148.1 L 447.5,148.1 L 447.0,148.1 L 446.6,148.2 L 446.1,148.2 L 445.7,148.3 L 445.2,148.3 L 444.8,148.4 L 444.3,148.4 L 443.8,148.5 L 443.3,148.5 L 442.8,148.6 L 442.3,148.6 L 441.8,148.7 L 441.2,148.7 L 440.7,148.8 L 440.1,148.8 L 439.5,148.9 L 439.0,148.9 L 438.4,148.9 L 437.7,149.0 L 437.1,149.0 L 436.5,149.0 L 435.8,149.0 L 435.2,149.0 L 434.5,149.0 L 433.8,148.9 L 433.1,148.9 L 432.4,148.8 L 431.7,148.8 L 431.0,148.7 L 430.2,148.6 L 429.5,148.4 L 428.7,148.3 L 427.9,148.1 L 427.1,148.0 L 426.3,147.8 L 425.6,147.6 L 424.8,147.3 L 423.9,147.1 L 423.1,146.8 L 422.3,146.5 L 421.5,146.1 L 420.7,145.8 L 419.9,145.4 L 419.0,145.0 L 418.2,144.6 L 417.4,144.1 L 416.6,143.6 L 415.8,143.1 L 414.9,142.6 L 414.1,142.0 L 413.4,141.4 L 412.6,140.8 L 411.8,140.2 L 411.0,139.5 L 410.3,138.8 L 409.5,138.1 L 408.8,137.3 L 408.1,136.6 L 407.4,135.8 L 406.7,135.0 L 406.1,134.1 L 405.4,133.3 L 404.8,132.4 L 404.2,131.5 L 403.6,130.5 L 403.1,129.6 L 402.6,128.6 L 402.1,127.6 L 401.6,126.6 L 401.1,125.6 L 400.7,124.5 L 400.3,123.5 L 400.0,122.4 L 399.6,121.3 L 399.3,120.2 L 399.0,119.1 L 398.8,118.0 L 398.6,116.9 L 398.4,115.7 L 398.3,114.6 L 398.1,113.5 L 398.1,112.3 L 398.0,111.2 L 398.0,110.0 L 398.0,108.8 L 398.1,107.7 L 398.1,106.5 L 398.3,105.4 L 398.4,104.3 L 398.6,103.1 L 398.8,102.0 L 399.0,100.9 L 399.3,99.8 L 399.6,98.7 L 400.0,97.6 L 400.3,96.5 L 400.7,95.5 L 401.1,94.4 L 401.6,93.4 L 402.1,92.4 L 402.6,91.4 L 403.1,90.4 L 403.6,89.5 L 404.2,88.5 L 404.8,87.6 L 405.4,86.7 L 406.1,85.9 L 406.7,85.0 L 407.4,84.2 L 408.1,83.4 L 408.8,82.7 L 409.5,81.9 L 410.3,81.2 L 411.0,80.5 L 411.8,79.8 L 412.6,79.2 L 413.4,78.6 L 414.1,78.0 L 414.9,77.4 L 415.8,76.9 L 416.6,76.4 L 417.4,75.9 L 418.2,75.4 L 419.0,75.0 L 419.9,74.6 L 420.7,74.2 L 421.5,73.9 L 422.3,73.5 L 423.1,73.2 L 423.9,72.9 L 424.8,72.7 L 425.6,72.4 L 426.3,72.2 L 427.1,72.0 L 427.9,71.9 L 428.7,71.7 L 429.5,71.6 L 430.2,71.4 L 431.0,71.3 L 431.7,71.2 L 432.4,71.2 L 433.1,71.1 L 433.8,71.1 L 434.5,71.0 L 435.2,71.0 L 435.8,71.0 L 436.5,71.0 L 437.1,71.0 L 437.7,71.0 L 438.4,71.1 L 439.0,71.1 L 439.5,71.1 L 440.1,71.2 L 440.7,71.2 L 441.2,71.3 L 441.8,71.3 L 442.3,71.4 L 442.8,71.4 L 443.3,71.5 L 443.8,71.5 L 444.3,71.6 L 444.8,71.6 L 445.2,71.7 L 445.7,71.7 L 446.1,71.8 L 446.6,71.8 L 447.0,71.9 L 447.5,71.9 L 447.9,71.9 L 448.3,72.0 L 448.7,72.0 L 449.2,72.0 L 449.6,72.0 L 450.0,72.0 L 450.4,72.0 L 450.8,72.0 L 451.3,72.0 L 451.7,72.0 L 452.1,71.9 L 452.5,71.9 L 453.0,71.9 L 453.4,71.8 L 453.9,71.8 L 454.3,71.7 L 454.8,71.7 L 455.2,71.6 L 455.7,71.6 L 456.2,71.5 L 456.7,71.5 L 457.2,71.4 L 457.7,71.4 L 458.2,71.3 L 458.8,71.3 L 459.3,71.2 L 459.9,71.2 L 460.5,71.1 L 461.0,71.1 L 461.6,71.1 L 462.3,71.0 L 462.9,71.0 L 463.5,71.0 L 464.2,71.0 L 464.8,71.0 L 465.5,71.0 L 466.2,71.1 L 466.9,71.1 L 467.6,71.2 L 468.3,71.2 L 469.0,71.3 L 469.8,71.4 L 470.5,71.6 L 471.3,71.7 L 472.1,71.9 L 472.9,72.0 L 473.7,72.2 L 474.4,72.4 L 475.2,72.7 L 476.1,72.9 L 476.9,73.2 L 477.7,73.5 L 478.5,73.9 L 479.3,74.2 L 480.1,74.6 L 481.0,75.0 L 481.8,75.4 L 482.6,75.9 L 483.4,76.4 L 484.2,76.9 L 485.1,77.4 L 485.9,78.0 L 486.6,78.6 L 487.4,79.2 L 488.2,79.8 L 489.0,80.5 L 489.7,81.2 L 490.5,81.9 L 491.2,82.7 L 491.9,83.4 L 492.6,84.2 L 493.3,85.0 L 493.9,85.9 L 494.6,86.7 L 495.2,87.6 L 495.8,88.5 L 496.4,89.5 L 496.9,90.4 L 497.4,91.4 L 497.9,92.4 L 498.4,93.4 L 498.9,94.4 L 499.3,95.5 L 499.7,96.5 L 500.0,97.6 L 500.4,98.7 L 500.7,99.8 L 501.0,100.9 L 501.2,102.0 L 501.4,103.1 L 501.6,104.3 L 501.7,105.4 L 501.9,106.5 L 501.9,107.7 L 502.0,108.8 Z" fill="none" stroke="#8B949E" stroke-width="1" opacity="0.05"/>
  <path d="M 341.0,80.0 L 341.0,80.9 L 340.9,81.8 L 340.9,82.8 L 340.8,83.7 L 340.7,84.6 L 340.5,85.5 L 340.3,86.4 L 340.1,87.3 L 339.9,88.2 L 339.7,89.1 L 339.4,89.9 L 339.1,90.8 L 338.8,91.6 L 338.4,92.5 L 338.1,93.3 L 337.7,94.1 L 337.2,94.9 L 336.8,95.7 L 336.4,96.4 L 335.9,97.2 L 335.4,97.9 L 334.9,98.6 L 334.4,99.3 L 333.8,99.9 L 333.3,100.6 L 332.7,101.2 L 332.1,101.8 L 331.5,102.4 L 330.9,103.0 L 330.3,103.5 L 329.7,104.0 L 329.1,104.5 L 328.4,105.0 L 327.8,105.4 L 327.1,105.9 L 326.5,106.3 L 325.8,106.7 L 325.1,107.0 L 324.5,107.4 L 323.8,107.7 L 323.1,108.0 L 322.5,108.3 L 321.8,108.5 L 321.2,108.8 L 320.5,109.0 L 319.9,109.2 L 319.2,109.4 L 318.6,109.5 L 317.9,109.7 L 317.3,109.8 L 316.7,109.9 L 316.1,110.0 L 315.5,110.1 L 314.9,110.2 L 314.3,110.2 L 313.7,110.3 L 313.1,110.3 L 312.6,110.3 L 312.0,110.3 L 311.5,110.3 L 311.0,110.3 L 310.5,110.3 L 310.0,110.2 L 309.5,110.2 L 309.0,110.2 L 308.5,110.1 L 308.1,110.1 L 307.6,110.0 L 307.2,110.0 L 306.8,109.9 L 306.4,109.8 L 306.0,109.8 L 305.6,109.7 L 305.2,109.6 L 304.8,109.6 L 304.5,109.5 L 304.1,109.4 L 303.8,109.4 L 303.4,109.3 L 303.1,109.3 L 302.8,109.2 L 302.4,109.2 L 302.1,109.1 L 301.8,109.1 L 301.5,109.1 L 301.2,109.0 L 300.9,109.0 L 300.6,109.0 L 300.3,109.0 L 300.0,109.0 L 299.7,109.0 L 299.4,109.0 L 299.1,109.0 L 298.8,109.0 L 298.5,109.1 L 298.2,109.1 L 297.9,109.1 L 297.6,109.2 L 297.2,109.2 L 296.9,109.3 L 296.6,109.3 L 296.2,109.4 L 295.9,109.4 L 295.5,109.5 L 295.2,109.6 L 294.8,109.6 L 294.4,109.7 L 294.0,109.8 L 293.6,109.8 L 293.2,109.9 L 292.8,110.0 L 292.4,110.0 L 291.9,110.1 L 291.5,110.1 L 291.0,110.2 L 290.5,110.2 L 290.0,110.2 L 289.5,110.3 L 289.0,110.3 L 288.5,110.3 L 288.0,110.3 L 287.4,110.3 L 286.9,110.3 L 286.3,110.3 L 285.7,110.2 L 285.1,110.2 L 284.5,110.1 L 283.9,110.0 L 283.3,109.9 L 282.7,109.8 L 282.1,109.7 L 281.4,109.5 L 280.8,109.4 L 280.1,109.2 L 279.5,109.0 L 278.8,108.8 L 278.2,108.5 L 277.5,108.3 L 276.9,108.0 L 276.2,107.7 L 275.5,107.4 L 274.9,107.0 L 274.2,106.7 L 273.5,106.3 L 272.9,105.9 L 272.2,105.4 L 271.6,105.0 L 270.9,104.5 L 270.3,104.0 L 269.7,103.5 L 269.1,103.0 L 268.5,102.4 L 267.9,101.8 L 267.3,101.2 L 266.7,100.6 L 266.2,99.9 L 265.6,99.3 L 265.1,98.6 L 264.6,97.9 L 264.1,97.2 L 263.6,96.4 L 263.2,95.7 L 262.8,94.9 L 262.3,94.1 L 261.9,93.3 L 261.6,92.5 L 261.2,91.6 L 260.9,90.8 L 260.6,89.9 L 260.3,89.1 L 260.1,88.2 L 259.9,87.3 L 259.7,86.4 L 259.5,85.5 L 259.3,84.6 L 259.2,83.7 L 259.1,82.8 L 259.1,81.8 L 259.0,80.9 L 259.0,80.0 L 259.0,79.1 L 259.1,78.2 L 259.1,77.2 L 259.2,76.3 L 259.3,75.4 L 259.5,74.5 L 259.7,73.6 L 259.9,72.7 L 260.1,71.8 L 260.3,70.9 L 260.6,70.1 L 260.9,69.2 L 261.2,68.4 L 261.6,67.5 L 261.9,66.7 L 262.3,65.9 L 262.8,65.1 L 263.2,64.3 L 263.6,63.6 L 264.1,62.8 L 264.6,62.1 L 265.1,61.4 L 265.6,60.7 L 266.2,60.1 L 266.7,59.4 L 267.3,58.8 L 267.9,58.2 L 268.5,57.6 L 269.1,57.0 L 269.7,56.5 L 270.3,56.0 L 270.9,55.5 L 271.6,55.0 L 272.2,54.6 L 272.9,54.1 L 273.5,53.7 L 274.2,53.3 L 274.9,53.0 L 275.5,52.6 L 276.2,52.3 L 276.9,52.0 L 277.5,51.7 L 278.2,51.5 L 278.8,51.2 L 279.5,51.0 L 280.1,50.8 L 280.8,50.6 L 281.4,50.5 L 282.1,50.3 L 282.7,50.2 L 283.3,50.1 L 283.9,50.0 L 284.5,49.9 L 285.1,49.8 L 285.7,49.8 L 286.3,49.7 L 286.9,49.7 L 287.4,49.7 L 288.0,49.7 L 288.5,49.7 L 289.0,49.7 L 289.5,49.7 L 290.0,49.8 L 290.5,49.8 L 291.0,49.8 L 291.5,49.9 L 291.9,49.9 L 292.4,50.0 L 292.8,50.0 L 293.2,50.1 L 293.6,50.2 L 294.0,50.2 L 294.4,50.3 L 294.8,50.4 L 295.2,50.4 L 295.5,50.5 L 295.9,50.6 L 296.2,50.6 L 296.6,50.7 L 296.9,50.7 L 297.2,50.8 L 297.6,50.8 L 297.9,50.9 L 298.2,50.9 L 298.5,50.9 L 298.8,51.0 L 299.1,51.0 L 299.4,51.0 L 299.7,51.0 L 300.0,51.0 L 300.3,51.0 L 300.6,51.0 L 300.9,51.0 L 301.2,51.0 L 301.5,50.9 L 301.8,50.9 L 302.1,50.9 L 302.4,50.8 L 302.8,50.8 L 303.1,50.7 L 303.4,50.7 L 303.8,50.6 L 304.1,50.6 L 304.5,50.5 L 304.8,50.4 L 305.2,50.4 L 305.6,50.3 L 306.0,50.2 L 306.4,50.2 L 306.8,50.1 L 307.2,50.0 L 307.6,50.0 L 308.1,49.9 L 308.5,49.9 L 309.0,49.8 L 309.5,49.8 L 310.0,49.8 L 310.5,49.7 L 311.0,49.7 L 311.5,49.7 L 312.0,49.7 L 312.6,49.7 L 313.1,49.7 L 313.7,49.7 L 314.3,49.8 L 314.9,49.8 L 315.5,49.9 L 316.1,50.0 L 316.7,50.1 L 317.3,50.2 L 317.9,50.3 L 318.6,50.5 L 319.2,50.6 L 319.9,50.8 L 320.5,51.0 L 321.2,51.2 L 321.8,51.5 L 322.5,51.7 L 323.1,52.0 L 323.8,52.3 L 324.5,52.6 L 325.1,53.0 L 325.8,53.3 L 326.5,53.7 L 327.1,54.1 L 327.8,54.6 L 328.4,55.0 L 329.1,55.5 L 329.7,56.0 L 330.3,56.5 L 330.9,57.0 L 331.5,57.6 L 332.1,58.2 L 332.7,58.8 L 333.3,59.4 L 333.8,60.1 L 334.4,60.7 L 334.9,61.4 L 335.4,62.1 L 335.9,62.8 L 336.4,63.6 L 336.8,64.3 L 337.2,65.1 L 337.7,65.9 L 338.1,66.7 L 338.4,67.5 L 338.8,68.4 L 339.1,69.2 L 339.4,70.1 L 339.7,70.9 L 339.9,71.8 L 340.1,72.7 L 340.3,73.6 L 340.5,74.5 L 340.7,75.4 L 340.8,76.3 L 340.9,77.2 L 340.9,78.2 L 341.0,79.1 Z" fill="none" stroke="#EC915C" stroke-width="1" opacity="0.04"/>
  <path d="M 667.0,130.0 L 667.0,131.1 L 666.9,132.1 L 666.9,133.2 L 666.7,134.2 L 666.6,135.3 L 666.4,136.3 L 666.2,137.4 L 666.0,138.4 L 665.7,139.4 L 665.5,140.4 L 665.1,141.4 L 664.8,142.4 L 664.4,143.4 L 664.0,144.4 L 663.6,145.3 L 663.1,146.2 L 662.7,147.1 L 662.2,148.0 L 661.6,148.9 L 661.1,149.7 L 660.5,150.6 L 659.9,151.4 L 659.3,152.2 L 658.7,152.9 L 658.1,153.7 L 657.4,154.4 L 656.7,155.1 L 656.0,155.7 L 655.4,156.4 L 654.6,157.0 L 653.9,157.6 L 653.2,158.2 L 652.5,158.7 L 651.7,159.2 L 651.0,159.7 L 650.2,160.2 L 649.4,160.6 L 648.7,161.0 L 647.9,161.4 L 647.1,161.8 L 646.4,162.1 L 645.6,162.4 L 644.8,162.7 L 644.1,163.0 L 643.3,163.2 L 642.6,163.5 L 641.8,163.7 L 641.1,163.8 L 640.4,164.0 L 639.6,164.1 L 638.9,164.3 L 638.2,164.4 L 637.5,164.5 L 636.9,164.5 L 636.2,164.6 L 635.5,164.6 L 634.9,164.6 L 634.2,164.7 L 633.6,164.7 L 633.0,164.6 L 632.4,164.6 L 631.8,164.6 L 631.2,164.5 L 630.7,164.5 L 630.1,164.4 L 629.6,164.4 L 629.1,164.3 L 628.6,164.2 L 628.1,164.2 L 627.6,164.1 L 627.2,164.0 L 626.7,163.9 L 626.3,163.8 L 625.8,163.8 L 625.4,163.7 L 625.0,163.6 L 624.6,163.5 L 624.2,163.5 L 623.8,163.4 L 623.4,163.3 L 623.1,163.3 L 622.7,163.2 L 622.4,163.2 L 622.0,163.1 L 621.7,163.1 L 621.3,163.1 L 621.0,163.0 L 620.7,163.0 L 620.3,163.0 L 620.0,163.0 L 619.7,163.0 L 619.3,163.0 L 619.0,163.0 L 618.7,163.1 L 618.3,163.1 L 618.0,163.1 L 617.6,163.2 L 617.3,163.2 L 616.9,163.3 L 616.6,163.3 L 616.2,163.4 L 615.8,163.5 L 615.4,163.5 L 615.0,163.6 L 614.6,163.7 L 614.2,163.8 L 613.7,163.8 L 613.3,163.9 L 612.8,164.0 L 612.4,164.1 L 611.9,164.2 L 611.4,164.2 L 610.9,164.3 L 610.4,164.4 L 609.9,164.4 L 609.3,164.5 L 608.8,164.5 L 608.2,164.6 L 607.6,164.6 L 607.0,164.6 L 606.4,164.7 L 605.8,164.7 L 605.1,164.6 L 604.5,164.6 L 603.8,164.6 L 603.1,164.5 L 602.5,164.5 L 601.8,164.4 L 601.1,164.3 L 600.4,164.1 L 599.6,164.0 L 598.9,163.8 L 598.2,163.7 L 597.4,163.5 L 596.7,163.2 L 595.9,163.0 L 595.2,162.7 L 594.4,162.4 L 593.6,162.1 L 592.9,161.8 L 592.1,161.4 L 591.3,161.0 L 590.6,160.6 L 589.8,160.2 L 589.0,159.7 L 588.3,159.2 L 587.5,158.7 L 586.8,158.2 L 586.1,157.6 L 585.4,157.0 L 584.6,156.4 L 584.0,155.7 L 583.3,155.1 L 582.6,154.4 L 581.9,153.7 L 581.3,152.9 L 580.7,152.2 L 580.1,151.4 L 579.5,150.6 L 578.9,149.7 L 578.4,148.9 L 577.8,148.0 L 577.3,147.1 L 576.9,146.2 L 576.4,145.3 L 576.0,144.4 L 575.6,143.4 L 575.2,142.4 L 574.9,141.4 L 574.5,140.4 L 574.3,139.4 L 574.0,138.4 L 573.8,137.4 L 573.6,136.3 L 573.4,135.3 L 573.3,134.2 L 573.1,133.2 L 573.1,132.1 L 573.0,131.1 L 573.0,130.0 L 573.0,128.9 L 573.1,127.9 L 573.1,126.8 L 573.3,125.8 L 573.4,124.7 L 573.6,123.7 L 573.8,122.6 L 574.0,121.6 L 574.3,120.6 L 574.5,119.6 L 574.9,118.6 L 575.2,117.6 L 575.6,116.6 L 576.0,115.6 L 576.4,114.7 L 576.9,113.8 L 577.3,112.9 L 577.8,112.0 L 578.4,111.1 L 578.9,110.3 L 579.5,109.4 L 580.1,108.6 L 580.7,107.8 L 581.3,107.1 L 581.9,106.3 L 582.6,105.6 L 583.3,104.9 L 584.0,104.3 L 584.6,103.6 L 585.4,103.0 L 586.1,102.4 L 586.8,101.8 L 587.5,101.3 L 588.3,100.8 L 589.0,100.3 L 589.8,99.8 L 590.6,99.4 L 591.3,99.0 L 592.1,98.6 L 592.9,98.2 L 593.6,97.9 L 594.4,97.6 L 595.2,97.3 L 595.9,97.0 L 596.7,96.8 L 597.4,96.5 L 598.2,96.3 L 598.9,96.2 L 599.6,96.0 L 600.4,95.9 L 601.1,95.7 L 601.8,95.6 L 602.5,95.5 L 603.1,95.5 L 603.8,95.4 L 604.5,95.4 L 605.1,95.4 L 605.8,95.3 L 606.4,95.3 L 607.0,95.4 L 607.6,95.4 L 608.2,95.4 L 608.8,95.5 L 609.3,95.5 L 609.9,95.6 L 610.4,95.6 L 610.9,95.7 L 611.4,95.8 L 611.9,95.8 L 612.4,95.9 L 612.8,96.0 L 613.3,96.1 L 613.7,96.2 L 614.2,96.2 L 614.6,96.3 L 615.0,96.4 L 615.4,96.5 L 615.8,96.5 L 616.2,96.6 L 616.6,96.7 L 616.9,96.7 L 617.3,96.8 L 617.6,96.8 L 618.0,96.9 L 618.3,96.9 L 618.7,96.9 L 619.0,97.0 L 619.3,97.0 L 619.7,97.0 L 620.0,97.0 L 620.3,97.0 L 620.7,97.0 L 621.0,97.0 L 621.3,96.9 L 621.7,96.9 L 622.0,96.9 L 622.4,96.8 L 622.7,96.8 L 623.1,96.7 L 623.4,96.7 L 623.8,96.6 L 624.2,96.5 L 624.6,96.5 L 625.0,96.4 L 625.4,96.3 L 625.8,96.2 L 626.3,96.2 L 626.7,96.1 L 627.2,96.0 L 627.6,95.9 L 628.1,95.8 L 628.6,95.8 L 629.1,95.7 L 629.6,95.6 L 630.1,95.6 L 630.7,95.5 L 631.2,95.5 L 631.8,95.4 L 632.4,95.4 L 633.0,95.4 L 633.6,95.3 L 634.2,95.3 L 634.9,95.4 L 635.5,95.4 L 636.2,95.4 L 636.9,95.5 L 637.5,95.5 L 638.2,95.6 L 638.9,95.7 L 639.6,95.9 L 640.4,96.0 L 641.1,96.2 L 641.8,96.3 L 642.6,96.5 L 643.3,96.8 L 644.1,97.0 L 644.8,97.3 L 645.6,97.6 L 646.4,97.9 L 647.1,98.2 L 647.9,98.6 L 648.7,99.0 L 649.4,99.4 L 650.2,99.8 L 651.0,100.3 L 651.7,100.8 L 652.5,101.3 L 653.2,101.8 L 653.9,102.4 L 654.6,103.0 L 655.4,103.6 L 656.0,104.3 L 656.7,104.9 L 657.4,105.6 L 658.1,106.3 L 658.7,107.1 L 659.3,107.8 L 659.9,108.6 L 660.5,109.4 L 661.1,110.3 L 661.6,111.1 L 662.2,112.0 L 662.7,112.9 L 663.1,113.8 L 663.6,114.7 L 664.0,115.6 L 664.4,116.6 L 664.8,117.6 L 665.1,118.6 L 665.5,119.6 L 665.7,120.6 L 666.0,121.6 L 666.2,122.6 L 666.4,123.7 L 666.6,124.7 L 666.7,125.8 L 666.9,126.8 L 666.9,127.9 L 667.0,128.9 Z" fill="none" stroke="#EC915C" stroke-width="1" opacity="0.04"/>
  <line x1="0" y1="199" x2="900" y2="199" stroke="#30363D" stroke-width="1" opacity="0.5"/>
  <circle cx="575" cy="5" r="0.4" fill="#8B949E" opacity="0.03"/>
  <circle cx="663" cy="135" r="0.7" fill="#8B949E" opacity="0.02"/>
  <circle cx="380" cy="6" r="0.4" fill="#8B949E" opacity="0.04"/>
  <circle cx="24" cy="40" r="0.6" fill="#8B949E" opacity="0.04"/>
  <circle cx="198" cy="118" r="0.7" fill="#8B949E" opacity="0.02"/>
  <circle cx="725" cy="140" r="0.5" fill="#8B949E" opacity="0.03"/>
  <circle cx="861" cy="67" r="0.3" fill="#8B949E" opacity="0.02"/>
  <circle cx="763" cy="121" r="0.7" fill="#8B949E" opacity="0.05"/>
  <circle cx="483" cy="195" r="0.5" fill="#8B949E" opacity="0.04"/>
  <circle cx="746" cy="124" r="0.7" fill="#8B949E" opacity="0.04"/>
  <circle cx="634" cy="9" r="0.4" fill="#8B949E" opacity="0.03"/>
  <circle cx="72" cy="47" r="0.4" fill="#8B949E" opacity="0.03"/>
  <circle cx="572" cy="73" r="0.5" fill="#8B949E" opacity="0.03"/>
  <circle cx="240" cy="187" r="0.6" fill="#8B949E" opacity="0.04"/>
  <circle cx="154" cy="146" r="0.4" fill="#8B949E" opacity="0.04"/>
  <circle cx="891" cy="128" r="0.6" fill="#8B949E" opacity="0.05"/>
  <circle cx="759" cy="155" r="0.4" fill="#8B949E" opacity="0.02"/>
  <circle cx="284" cy="54" r="0.4" fill="#8B949E" opacity="0.06"/>
  <circle cx="789" cy="63" r="0.6" fill="#8B949E" opacity="0.04"/>
  <circle cx="823" cy="92" r="0.4" fill="#8B949E" opacity="0.03"/>
  <circle cx="505" cy="53" r="0.6" fill="#8B949E" opacity="0.06"/>
  <circle cx="359" cy="44" r="0.8" fill="#8B949E" opacity="0.04"/>
  <circle cx="82" cy="9" r="0.4" fill="#8B949E" opacity="0.05"/>
  <circle cx="713" cy="84" r="0.3" fill="#8B949E" opacity="0.04"/>
  <circle cx="897" cy="106" r="0.8" fill="#8B949E" opacity="0.05"/>
  <circle cx="10" cy="144" r="0.6" fill="#8B949E" opacity="0.04"/>
  <circle cx="240" cy="128" r="0.4" fill="#8B949E" opacity="0.04"/>
  <circle cx="408" cy="191" r="0.7" fill="#8B949E" opacity="0.03"/>
  <circle cx="451" cy="36" r="0.8" fill="#8B949E" opacity="0.05"/>
  <circle cx="269" cy="128" r="0.6" fill="#8B949E" opacity="0.03"/>
  <circle cx="686" cy="108" r="0.7" fill="#8B949E" opacity="0.04"/>
  <circle cx="1" cy="65" r="0.3" fill="#8B949E" opacity="0.06"/>
  <circle cx="791" cy="166" r="0.5" fill="#8B949E" opacity="0.02"/>
  <circle cx="790" cy="189" r="0.3" fill="#8B949E" opacity="0.04"/>
  <circle cx="62" cy="152" r="0.7" fill="#8B949E" opacity="0.03"/>
  <circle cx="428" cy="110" r="0.4" fill="#8B949E" opacity="0.05"/>
  <circle cx="381" cy="42" r="0.6" fill="#8B949E" opacity="0.05"/>
  <circle cx="181" cy="62" r="0.8" fill="#8B949E" opacity="0.05"/>
  <circle cx="394" cy="104" r="0.4" fill="#8B949E" opacity="0.03"/>
  <circle cx="304" cy="118" r="0.4" fill="#8B949E" opacity="0.03"/>
  <circle cx="64" cy="126" r="0.4" fill="#8B949E" opacity="0.06"/>
  <circle cx="774" cy="14" r="0.4" fill="#8B949E" opacity="0.05"/>
  <circle cx="193" cy="26" r="0.8" fill="#8B949E" opacity="0.04"/>
  <circle cx="425" cy="157" r="0.7" fill="#8B949E" opacity="0.03"/>
  <circle cx="87" cy="86" r="0.5" fill="#8B949E" opacity="0.04"/>
  <circle cx="656" cy="135" r="0.8" fill="#8B949E" opacity="0.02"/>
  <circle cx="362" cy="68" r="0.7" fill="#8B949E" opacity="0.03"/>
  <circle cx="171" cy="90" r="0.5" fill="#8B949E" opacity="0.03"/>
  <circle cx="225" cy="185" r="0.5" fill="#8B949E" opacity="0.05"/>
  <circle cx="495" cy="10" r="0.8" fill="#8B949E" opacity="0.05"/>
  <circle cx="872" cy="185" r="0.7" fill="#8B949E" opacity="0.03"/>
  <circle cx="437" cy="43" r="0.5" fill="#8B949E" opacity="0.02"/>
  <circle cx="341" cy="197" r="0.4" fill="#8B949E" opacity="0.05"/>
  <circle cx="410" cy="85" r="0.8" fill="#8B949E" opacity="0.06"/>
  <circle cx="500" cy="144" r="0.4" fill="#8B949E" opacity="0.03"/>
  <circle cx="872" cy="116" r="0.6" fill="#8B949E" opacity="0.05"/>
  <circle cx="51" cy="117" r="0.6" fill="#8B949E" opacity="0.05"/>
  <circle cx="142" cy="192" r="0.3" fill="#8B949E" opacity="0.03"/>
  <circle cx="536" cy="135" r="0.4" fill="#8B949E" opacity="0.02"/>
  <circle cx="801" cy="49" r="0.6" fill="#8B949E" opacity="0.04"/>
  <circle cx="377" cy="117" r="0.6" fill="#8B949E" opacity="0.06"/>
  <circle cx="184" cy="143" r="0.4" fill="#8B949E" opacity="0.04"/>
  <circle cx="605" cy="60" r="0.5" fill="#8B949E" opacity="0.05"/>
  <circle cx="65" cy="92" r="0.8" fill="#8B949E" opacity="0.06"/>
  <circle cx="66" cy="43" r="0.4" fill="#8B949E" opacity="0.06"/>
  <circle cx="793" cy="176" r="0.5" fill="#8B949E" opacity="0.03"/>
  <circle cx="750" cy="141" r="0.6" fill="#8B949E" opacity="0.06"/>
  <circle cx="589" cy="2" r="0.7" fill="#8B949E" opacity="0.03"/>
  <circle cx="597" cy="188" r="0.4" fill="#8B949E" opacity="0.02"/>
  <circle cx="96" cy="111" r="0.4" fill="#8B949E" opacity="0.04"/>
  <circle cx="646" cy="41" r="0.6" fill="#8B949E" opacity="0.03"/>
  <circle cx="440" cy="181" r="0.7" fill="#8B949E" opacity="0.02"/>
  <circle cx="381" cy="55" r="0.3" fill="#8B949E" opacity="0.05"/>
  <circle cx="573" cy="52" r="0.7" fill="#8B949E" opacity="0.04"/>
  <circle cx="385" cy="2" r="0.3" fill="#8B949E" opacity="0.06"/>
  <circle cx="814" cy="109" r="0.7" fill="#8B949E" opacity="0.04"/>
  <circle cx="133" cy="25" r="0.5" fill="#8B949E" opacity="0.06"/>
  <circle cx="717" cy="172" r="0.7" fill="#8B949E" opacity="0.03"/>
  <circle cx="225" cy="21" r="0.7" fill="#8B949E" opacity="0.06"/>
  <circle cx="366" cy="124" r="0.4" fill="#8B949E" opacity="0.06"/>
</svg>
