<svg xmlns="http://www.w3.org/2000/svg" width="420" height="300" viewBox="0 0 420 300" font-family="'IBM Plex Mono','Cascadia Mono',Consolas,'Courier New',monospace">
<defs><pattern id="s" width="4" height="4" patternUnits="userSpaceOnUse"><rect width="4" height="2" fill="#000" opacity=".3"/></pattern>
<clipPath id="scr"><rect x="22" y="44" width="376" height="150" rx="6"/></clipPath></defs>
<path d="M10 0 H360 L410 40 V290 Q410 300 400 300 H20 Q10 300 10 290 Z" fill="#0A0F0A" stroke="#FFB000" stroke-width="3"/>
<text x="24" y="30" fill="#FFB000" font-size="15" font-weight="700">SLOT C:</text>
<text x="340" y="30" text-anchor="end" fill="#33FF66" font-size="12">[IN DEV]</text>
<rect x="22" y="44" width="376" height="150" rx="6" fill="#050805" stroke="#1F7A3A"/>
<g clip-path="url(#scr)"><polygon points="150,110 166,102 182,110 166,118" fill="#33FF66"/><polygon points="150,110 166,118 166,136 150,128" fill="#1F7A3A"/><polygon points="182,110 166,118 166,136 182,128" fill="#0f3d1c"/><polygon points="166,118 182,110 198,118 182,126" fill="#33FF66"/><polygon points="166,118 182,126 182,144 166,136" fill="#1F7A3A"/><polygon points="198,118 182,126 182,144 198,136" fill="#0f3d1c"/><polygon points="166,100 182,92 198,100 182,108" fill="#FFB000"/><polygon points="166,100 182,108 182,126 166,118" fill="#1F7A3A"/><polygon points="198,100 182,108 182,126 198,118" fill="#0f3d1c"/><polygon points="182,126 198,118 214,126 198,134" fill="#33FF66"/><polygon points="182,126 198,134 198,152 182,144" fill="#1F7A3A"/><polygon points="214,126 198,134 198,152 214,144" fill="#0f3d1c"/><polygon points="134,118 150,110 166,118 150,126" fill="#33FF66"/><polygon points="134,118 150,126 150,144 134,136" fill="#1F7A3A"/><polygon points="166,118 150,126 150,144 166,136" fill="#0f3d1c"/><polygon points="150,126 166,118 182,126 166,134" fill="#33FF66"/><polygon points="150,126 166,134 166,152 150,144" fill="#1F7A3A"/><polygon points="182,126 166,134 166,152 182,144" fill="#0f3d1c"/><polygon points="150,108 166,100 182,108 166,116" fill="#33FF66"/><polygon points="150,108 166,116 166,134 150,126" fill="#1F7A3A"/><polygon points="182,108 166,116 166,134 182,126" fill="#0f3d1c"/><polygon points="150,90 166,82 182,90 166,98" fill="#FFB000"/><polygon points="150,90 166,98 166,116 150,108" fill="#1F7A3A"/><polygon points="182,90 166,98 166,116 182,108" fill="#0f3d1c"/><polygon points="166,134 182,126 198,134 182,142" fill="#33FF66"/><polygon points="166,134 182,142 182,160 166,152" fill="#1F7A3A"/><polygon points="198,134 182,142 182,160 198,152" fill="#0f3d1c"/><polygon points="182,142 198,134 214,142 198,150" fill="#33FF66"/><polygon points="182,142 198,150 198,168 182,160" fill="#1F7A3A"/><polygon points="214,142 198,150 198,168 214,160" fill="#0f3d1c"/><polygon points="118,126 134,118 150,126 134,134" fill="#33FF66"/><polygon points="118,126 134,134 134,152 118,144" fill="#1F7A3A"/><polygon points="150,126 134,134 134,152 150,144" fill="#0f3d1c"/><polygon points="134,134 150,126 166,134 150,142" fill="#33FF66"/><polygon points="134,134 150,142 150,160 134,152" fill="#1F7A3A"/><polygon points="166,134 150,142 150,160 166,152" fill="#0f3d1c"/><polygon points="150,142 166,134 182,142 166,150" fill="#33FF66"/><polygon points="150,142 166,150 166,168 150,160" fill="#1F7A3A"/><polygon points="182,142 166,150 166,168 182,160" fill="#0f3d1c"/><polygon points="150,124 166,116 182,124 166,132" fill="#FFB000"/><polygon points="150,124 166,132 166,150 150,142" fill="#1F7A3A"/><polygon points="182,124 166,132 166,150 182,142" fill="#0f3d1c"/><polygon points="198,134 214,126 230,134 214,142" fill="#33FF66"/><polygon points="198,134 214,142 214,160 198,152" fill="#1F7A3A"/><polygon points="230,134 214,142 214,160 230,152" fill="#0f3d1c"/></g>
<text x="24" y="226" fill="#33FF66" font-size="15" font-weight="700">Portable Minecraft Clone, Pure C</text>
<text x="24" y="252" fill="#FFB000" font-size="13">C / OpenGL / GLFW</text>
<rect x="24" y="270" width="372" height="2" fill="#1F7A3A" opacity=".6"/>
<path d="M10 0 H360 L410 40 V290 Q410 300 400 300 H20 Q10 300 10 290 Z" fill="url(#s)" opacity=".7"/>
<g><path d="M8 0 H362 L412 42 V292 Q412 300 400 300 H20 Q8 300 8 292 Z" fill="#0A0F0A"/><animate attributeName="opacity" from="1" to="0" begin="5.38s" dur="0.11s" fill="freeze"/></g>
<rect x="0" y="149.0" width="420" height="2" fill="#33FF66" opacity="0">
<animate attributeName="opacity" values="0;1;1;0" keyTimes="0;.1;.6;1" begin="5.25s" dur="0.18s" fill="freeze"/>
<animate attributeName="x" from="210.0" to="0" begin="5.25s" dur="0.11s" fill="freeze"/>
<animate attributeName="width" from="0" to="420" begin="5.25s" dur="0.11s" fill="freeze"/></rect>
</svg>